/* XPM */
static char * close_prelight_xpm[] = {
"18 18 38 1",
" 	c #2A2E32",
".	c #644B50",
"+	c #AB6E76",
"@	c #DE8891",
"#	c #F6939D",
"$	c #DE8791",
"%	c #634B50",
"&	c #4A3E43",
"*	c #CB7E87",
"=	c #FF98A2",
"-	c #CA7D86",
";	c #493D43",
">	c #5E484D",
",	c #F1919A",
"'	c #5D474D",
")	c #F0909B",
"!	c #483D42",
"~	c #FB96A0",
"{	c #CF7F88",
"]	c #CA7E86",
"^	c #CE8089",
"/	c #333337",
"(	c #BB777F",
"_	c #624A50",
":	c #AC6F76",
"<	c #C07981",
"[	c #343338",
"}	c #AA6D75",
"|	c #BC767F",
"1	c #F4929D",
"2	c #323236",
"3	c #DD8790",
"4	c #A96E75",
"5	c #61494F",
"6	c #C97D86",
"7	c #463C41",
"8	c #EE9099",
"9	c #F5939C",
"     .+@##$+%     ",
"   &*========-;   ",
"  >,==========,'  ",
" &,============)! ",
" *==~{======{~==] ",
".===^/(====(/^===_",
":====<[(==<[(====}",
"@=====(/||/(=====$",
"1======(//(======1",
"1======(22(======1",
"@=====(/((/(=====3",
"+====<[(==<[(====4",
"%==={/(====(/{===5",
" -==~{======{~==6 ",
" 78============)! ",
"  ')==========)'  ",
"   ;]========6!   ",
"     _}3993}5     "};
