/* XPM */
static char * close_inactive_xpm[] = {
"18 18 36 1",
" 	c #2A2E32",
".	c #3D4449",
"+	c #545E68",
"@	c #65717D",
"#	c #6D7A86",
"$	c #65707C",
"%	c #555D67",
"&	c #3D434A",
"*	c #353A40",
"=	c #5F6A74",
"-	c #707D8A",
";	c #5E6974",
">	c #34393F",
",	c #3B4148",
"'	c #6C7884",
")	c #3B4147",
"!	c #6B7784",
"~	c #343A3E",
"{	c #6F7C88",
"]	c #616B76",
"^	c #606B76",
"/	c #2D3136",
"(	c #59646E",
"_	c #3C4349",
":	c #555E67",
"<	c #5B6670",
"[	c #2D3236",
"}	c #545D67",
"|	c #5A646F",
"1	c #6C7986",
"2	c #2C3135",
"3	c #545E66",
"4	c #3C4249",
"5	c #33383E",
"6	c #6A7783",
"7	c #6D7986",
"     .+@##$%&     ",
"   *=--------;>   ",
"  ,'----------')  ",
" *'------------!~ ",
" =--{]------]{--= ",
".---^/(----(/^---_",
":----<[(--<[(----}",
"@-----(/||/(-----$",
"1------(//(------1",
"1------(22(------1",
"@-----(/((/(-----$",
"+----<[(--<[(----3",
"&---]/(----(/]---4",
" ;--{]------]{--; ",
" 56------------!~ ",
"  )!----------!)  ",
"   >=--------;~   ",
"     _}$77$}4     "};
