/* XPM */
static char * close_active_xpm[] = {
"18 18 37 1",
" 	c #2A2E32",
".	c #5A343A",
"+	c #953B46",
"@	c #BF414E",
"#	c #D34351",
"$	c #BF404E",
"%	c #59343B",
"&	c #443137",
"*	c #AF3E4B",
"=	c #DA4453",
"-	c #AE3E4A",
";	c #55343A",
">	c #CE4250",
",	c #54333A",
"'	c #CE4251",
")	c #433237",
"!	c #D74452",
"~	c #B23F4B",
"{	c #AE3F4B",
"]	c #B23F4C",
"^	c #312F34",
"/	c #A23D49",
"(	c #58343B",
"_	c #953C46",
":	c #A63E4A",
"<	c #322F34",
"[	c #943B46",
"}	c #A33D49",
"|	c #D14352",
"1	c #312F33",
"2	c #BE404E",
"3	c #933C45",
"4	c #57343A",
"5	c #AD3F4B",
"6	c #413137",
"7	c #CC4350",
"8	c #D24351",
"     .+@##$+%     ",
"   &*========-&   ",
"  ;>==========>,  ",
" &>============') ",
" *==!~======~!=={ ",
".===]^/====/^]===(",
"_====:</==:</====[",
"@=====/^}}^/=====$",
"|======/^^/======|",
"|======/11/======|",
"@=====/^//^/=====2",
"+====:</==:</====3",
"%===~^/====/^~===4",
" -==!~======~!==5 ",
" 67============') ",
"  ,'==========',  ",
"   &{========5)   ",
"     ([2882[4     "};
