/* XPM */
static char * close_pressed_xpm[] = {
"18 18 35 1",
" 	c #2A2E32",
".	c #3C2B2F",
"+	c #52272D",
"@	c #62242B",
"#	c #6A2329",
"$	c #63242B",
"%	c #53272D",
"&	c #3C2B30",
"*	c #342C31",
"=	c #5C252B",
"-	c #6D2229",
";	c #3A2B30",
">	c #692329",
",	c #68232A",
"'	c #332D31",
")	c #6C2229",
"!	c #5E242B",
"~	c #5D252C",
"{	c #5E252C",
"]	c #2D2D32",
"^	c #57262C",
"/	c #53272C",
"(	c #59262C",
"_	c #2D2E32",
":	c #52262D",
"<	c #58252C",
"[	c #69222A",
"}	c #2C2D32",
"|	c #62242A",
"1	c #52272C",
"2	c #3B2B30",
"3	c #5C252C",
"4	c #332C31",
"5	c #67232A",
"6	c #6A2229",
"     .+@##$%&     ",
"   *=--------=*   ",
"  ;>---------->;  ",
" *>------------,' ",
" =--)!------!)--~ ",
".---{]^----^]{---&",
"/----(_^--(_^----:",
"@-----^]<<]^-----$",
"[------^]]^------[",
"[------^}}^------[",
"@-----^]^^]^-----|",
"+----(_^--(_^----1",
"&---!]^----^]!---2",
" =--)!------!)--3 ",
" 45------------,' ",
"  ;,----------,;  ",
"   *~--------3'   ",
"     &:|66|:2     "};
