/* XPM */
static char * hide_pressed_xpm[] = {
"18 18 30 1",
" 	c #2A2E32",
".	c #40474C",
"+	c #5B646D",
"@	c #6E7985",
"#	c #78838F",
"$	c #6F7984",
"%	c #40464C",
"&	c #363B41",
"*	c #67717B",
"=	c #7B8793",
"-	c #363B40",
";	c #3E444A",
">	c #76818C",
",	c #3D4349",
"'	c #75808D",
")	c #353B40",
"!	c #3F454C",
"~	c #5B656D",
"{	c #454C52",
"]	c #5B636C",
"^	c #68727C",
"/	c #31363B",
"(	c #66707A",
"_	c #77838E",
":	c #76838E",
"<	c #6E7883",
"[	c #5A636C",
"}	c #3F454B",
"|	c #35393F",
"1	c #74808B",
"     .+@##$+%     ",
"   &*========*-   ",
"  ;>==========>,  ",
" &>============') ",
" *==============* ",
".================!",
"~=={*========*{==]",
"@==^/(======^/(==$",
"_===^/(====^/(===_",
"_====^/(==^/(====:",
"@=====^/(^/(=====<",
"+======*//*======[",
"%=======**=======}",
" (==============* ",
" |1============') ",
"  ,'==========',  ",
"   -*========*)   ",
"     !]<__<]}     "};
