/* XPM */
static char * hide_active_xpm[] = {
"18 18 6 1",
" 	c #2A2E32",
".	c #ADAFB2",
"+	c #5B5E61",
"@	c #585B5F",
"#	c #DEDFE0",
"$	c #5D6063",
"                  ",
"                  ",
"                  ",
"                  ",
"                  ",
"                  ",
"   .+        +.   ",
"   @#$      @#$   ",
"    @#$    @#$    ",
"     @#$  @#$     ",
"      @#$@#$      ",
"       +##+       ",
"        ++        ",
"                  ",
"                  ",
"                  ",
"                  ",
"                  "};
