/* XPM */
static char * maximize_toggled_pressed_xpm[] = {
"18 18 32 1",
" 	c #2A2E32",
".	c #3D4449",
"+	c #545E68",
"@	c #65717D",
"#	c #6D7A86",
"$	c #65707C",
"%	c #555D67",
"&	c #3D434A",
"*	c #353A40",
"=	c #5F6A74",
"-	c #707D8A",
";	c #5E6974",
">	c #34393F",
",	c #3B4148",
"'	c #6C7884",
")	c #3B4147",
"!	c #6B7784",
"~	c #343A3E",
"{	c #303439",
"]	c #30353A",
"^	c #5F6A75",
"/	c #5E6973",
"(	c #606B76",
"_	c #3C4349",
":	c #555E67",
"<	c #545D67",
"[	c #6D7986",
"}	c #6C7985",
"|	c #545E66",
"1	c #3C4249",
"2	c #33383E",
"3	c #6A7783",
"     .+@##$%&     ",
"   *=--------;>   ",
"  ,'----------')  ",
" *'-----==-----!~ ",
" ;-----={]=-----= ",
".-----^]/(]/-----_",
":----(]/--(]/----<",
"@---(]/----(]/---$",
"[--(]/------(]/--[",
"[--(]/------(]/--}",
"@---(]/----(]/---$",
"+----(]/--(]/----|",
"&-----(]/(]/-----1",
" /-----=]]=-----; ",
" 23-----==-----!~ ",
"  )!----------!)  ",
"   >=--------;~   ",
"     _<$[[$<1     "};
