/* XPM */
static char * maximize_toggled_active_xpm[] = {
"18 18 7 1",
" 	c #2A2E32",
".	c #5B5E61",
"+	c #DEE0E1",
"@	c #DEDFE0",
"#	c #595C60",
"$	c #5D6063",
"%	c #585B5F",
"                  ",
"                  ",
"                  ",
"        ..        ",
"       .+@.       ",
"      #@$%@$      ",
"     %@$  %@$     ",
"    %@$    %@$    ",
"   %@$      %@$   ",
"   %@$      %@$   ",
"    %@$    %@$    ",
"     %@$  %@$     ",
"      %@$%@$      ",
"       .@@.       ",
"        ..        ",
"                  ",
"                  ",
"                  "};
