/* XPM */
static char * shade_prelight_xpm[] = {
"18 18 34 1",
" 	c #2A2E32",
".	c #606365",
"+	c #A1A4A6",
"@	c #D0D2D4",
"#	c #E7E8E9",
"$	c #D1D1D3",
"%	c #A1A3A6",
"&	c #5F6265",
"*	c #484B4F",
"=	c #BFC1C2",
"-	c #EFF0F1",
";	c #BEC0C1",
">	c #474A4E",
",	c #5A5D61",
"'	c #E2E3E4",
")	c #595C60",
"!	c #E1E2E4",
"~	c #464A4D",
"{	c #BDBFC1",
"]	c #5E6164",
"^	c #A2A5A6",
"/	c #A0A2A5",
"(	c #BEC0C2",
"_	c #E6E7E8",
":	c #3B3F43",
"<	c #C1C3C4",
"[	c #BCBEC0",
"}	c #E4E6E7",
"|	c #D0D0D2",
"1	c #9FA2A4",
"2	c #5D6063",
"3	c #6C6F71",
"4	c #44474B",
"5	c #DFE1E2",
"     .+@##$%&     ",
"   *=--------;>   ",
"  ,'----------')  ",
" *'------------!~ ",
" {--------------= ",
".--            --]",
"^----------------/",
"@-------((-------$",
"_------(::(------_",
"_-----<:[<:[-----}",
"@----<:[--<:[----|",
"+---<:[----<:[---1",
"&--<:[------<:[--2",
" [-3(--------(3-; ",
" 45------------!~ ",
"  )!----------!)  ",
"   >(--------{~   ",
"     ]/|__|/2     "};
