/* XPM */
static char * shade_pressed_xpm[] = {
"18 18 31 1",
" 	c #2A2E32",
".	c #3D4449",
"+	c #545E68",
"@	c #65717D",
"#	c #6D7A86",
"$	c #65707C",
"%	c #555D67",
"&	c #3D434A",
"*	c #353A40",
"=	c #5F6A74",
"-	c #707D8A",
";	c #5E6974",
">	c #34393F",
",	c #3B4148",
"'	c #6C7884",
")	c #3B4147",
"!	c #6B7784",
"~	c #343A3E",
"{	c #3C4349",
"]	c #555E67",
"^	c #545D67",
"/	c #6D7986",
"(	c #30353A",
"_	c #606B76",
":	c #5E6973",
"<	c #6C7985",
"[	c #545E66",
"}	c #3C4249",
"|	c #41494F",
"1	c #33383E",
"2	c #6A7783",
"     .+@##$%&     ",
"   *=--------;>   ",
"  ,'----------')  ",
" *'------------!~ ",
" ;--------------= ",
".--            --{",
"]----------------^",
"@-------==-------$",
"/------=((=------/",
"/-----_(:_(:-----<",
"@----_(:--_(:----$",
"+---_(:----_(:---[",
"&--_(:------_(:--}",
" :-|=--------=|-; ",
" 12------------!~ ",
"  )!----------!)  ",
"   >=--------;~   ",
"     {^$//$^}     "};
