/* XPM */
static char * stick_inactive_xpm[] = {
"18 18 13 1",
" 	c #2A2E32",
".	c #4D565E",
"+	c #505861",
"@	c #707D8A",
"#	c #33383D",
"$	c #6A7783",
"%	c #3B4148",
"&	c #6C7884",
"*	c #3A4046",
"=	c #6D7986",
"-	c #4D555E",
";	c #6A7682",
">	c #6D7A86",
"                  ",
"                  ",
"                  ",
"           .+     ",
"          .@@+    ",
"         .@@@@+   ",
"     #  .@@@@@.   ",
"    #$%.@@@@@.    ",
"     %&@@@@@.     ",
"      *=@@@-      ",
"      %;>@.       ",
"     %;%%&%       ",
"    %;%  %$#      ",
"   #$%    #       ",
"    #             ",
"                  ",
"                  ",
"                  "};
