/* XPM */
static char * stick_prelight_xpm[] = {
"18 18 41 1",
" 	c #2A2E32",
".	c #606365",
"+	c #A1A4A6",
"@	c #D0D2D4",
"#	c #E7E8E9",
"$	c #D1D1D3",
"%	c #A1A3A6",
"&	c #5F6265",
"*	c #484B4F",
"=	c #BFC1C2",
"-	c #EFF0F1",
";	c #BEC0C1",
">	c #474A4E",
",	c #5A5D61",
"'	c #E2E3E4",
")	c #595C60",
"!	c #8C8F91",
"~	c #86898B",
"{	c #E1E2E4",
"]	c #464A4D",
"^	c #BDBFC1",
"/	c #5E6164",
"(	c #A2A5A6",
"_	c #D6D8D9",
":	c #A0A2A5",
"<	c #3B3E42",
"[	c #BEC0C2",
"}	c #E6E7E8",
"|	c #363A3E",
"1	c #C1C3C4",
"2	c #33373B",
"3	c #8D8F92",
"4	c #E4E6E7",
"5	c #3B3F43",
"6	c #32363A",
"7	c #D0D0D2",
"8	c #9FA2A4",
"9	c #5D6063",
"0	c #BCBEC0",
"a	c #44474B",
"b	c #DFE1E2",
"     .+@##$%&     ",
"   *=--------;>   ",
"  ,'----------')  ",
" *'--------!~--{] ",
" ^--------!  ~--= ",
".--------!    ~--/",
"(----_--!     !--:",
"@---_<[!     !---$",
"}----[|     !----}",
"}-----12   3-----4",
"@-----[56 !------7",
"+----[5[[|[------8",
"&---[5[--[<_-----9",
" 0-_<[----_-----; ",
" ab-_----------{] ",
"  ){----------{)  ",
"   >[--------^]   ",
"     /:7}}7:9     "};
