/* XPM */
static char * stick_toggled_inactive_xpm[] = {
"18 18 22 1",
" 	c #2A2E32",
".	c #30353A",
"+	c #4E575F",
"@	c #636E79",
"#	c #6D7A86",
"$	c #626E79",
"%	c #4E565F",
"&	c #41494F",
"*	c #6C7986",
"=	c #707D8A",
"-	c #41484F",
";	c #707D89",
">	c #6C7985",
",	c #303439",
"'	c #636E7A",
")	c #6D7986",
"!	c #394046",
"~	c #3A4046",
"{	c #3B4147",
"]	c #6B7985",
"^	c #40474E",
"/	c #626D79",
"                  ",
"                  ",
"     .+@##$%.     ",
"    &*======*-    ",
"   &;========;-   ",
"  .*==========>,  ",
"  +============+  ",
"  '============$  ",
"  )=====!~=====*  ",
"  *=====~{=====>  ",
"  @============$  ",
"  %============%  ",
"  .*==========],  ",
"   -;========;^   ",
"    ->======]^    ",
"     ,+/))/%,     ",
"                  ",
"                  "};
