/* XPM */
static char * stick_pressed_xpm[] = {
"18 18 38 1",
" 	c #2A2E32",
".	c #3D4449",
"+	c #545E68",
"@	c #65717D",
"#	c #6D7A86",
"$	c #65707C",
"%	c #555D67",
"&	c #3D434A",
"*	c #353A40",
"=	c #5F6A74",
"-	c #707D8A",
";	c #5E6974",
">	c #34393F",
",	c #3B4148",
"'	c #6C7884",
")	c #3B4147",
"!	c #4D555E",
"~	c #4A535B",
"{	c #6B7784",
"]	c #343A3E",
"^	c #3C4349",
"/	c #555E67",
"(	c #67737F",
"_	c #545D67",
":	c #303439",
"<	c #6D7986",
"[	c #2E3338",
"}	c #606B76",
"|	c #2D3236",
"1	c #4D565E",
"2	c #6C7985",
"3	c #30353A",
"4	c #2D3136",
"5	c #545E66",
"6	c #3C4249",
"7	c #5E6973",
"8	c #33383E",
"9	c #6A7783",
"     .+@##$%&     ",
"   *=--------;>   ",
"  ,'----------')  ",
" *'--------!~--{] ",
" ;--------!  ~--= ",
".--------!    ~--^",
"/----(--!     !--_",
"@---(:=!     !---$",
"<----=[     !----<",
"<-----}|   1-----2",
"@-----=34 !------$",
"+----=3==[=------5",
"&---=3=--=:(-----6",
" 7-(:=----(-----; ",
" 89-(----------{] ",
"  ){----------{)  ",
"   >=--------;]   ",
"     ^_$<<$_6     "};
