/* XPM */
static char * stick_toggled_prelight_xpm[] = {
"18 18 54 1",
" 	c #2A2E32",
".	c #606365",
"+	c #A1A4A6",
"@	c #D0D2D4",
"#	c #E7E8E9",
"$	c #D1D1D3",
"%	c #A1A3A6",
"&	c #5F6265",
"*	c #484B4F",
"=	c #BFC1C2",
"-	c #EFF0F1",
";	c #BEC0C1",
">	c #474A4E",
",	c #5A5D61",
"'	c #E2E3E4",
")	c #595C60",
"!	c #C7C8CA",
"~	c #E1E2E4",
"{	c #464A4D",
"]	c #BDBFC1",
"^	c #E3E5E6",
"/	c #7A7C7F",
"(	c #313439",
"_	c #7A7D80",
":	c #E4E6E7",
"<	c #4D5054",
"[	c #4D5154",
"}	c #5E6164",
"|	c #A2A5A6",
"1	c #7C7F81",
"2	c #A0A2A5",
"3	c #2C3034",
"4	c #717477",
"5	c #2B2F33",
"6	c #313539",
"7	c #E8E9EA",
"8	c #E6E7E8",
"9	c #C6C8C9",
"0	c #707476",
"a	c #C7C9CB",
"b	c #C9CBCD",
"c	c #6F7375",
"d	c #D0D0D2",
"e	c #7C8082",
"f	c #9FA2A4",
"g	c #4E5255",
"h	c #E5E6E8",
"i	c #5D6063",
"j	c #BCBEC0",
"k	c #7B7E80",
"l	c #44474B",
"m	c #DFE1E2",
"n	c #C8CACC",
"o	c #BEC0C2",
"     .+@##$%&     ",
"   *=--------;>   ",
"  ,'----------')  ",
" *'----#!!#----~{ ",
" ]---^/(  (_:---= ",
".---^<      [:---}",
"|---/        1---2",
"@--#(  3445  67--$",
"8--9   4--0   a--8",
"8--a   4--0   b--:",
"@--#(  50c5  67--d",
"+---_        e---f",
"&---:[      gh---i",
" j---:k(  6eh---; ",
" lm----7nn7----~{ ",
"  )~----------~)  ",
"   >o--------]{   ",
"     }2d88d2i     "};
