/* XPM */
static char * stick_toggled_active_xpm[] = {
"18 18 24 1",
" 	c #2A2E32",
".	c #3B3F43",
"+	c #909295",
"@	c #CACCCD",
"#	c #E7E8E9",
"$	c #C9CBCD",
"%	c #8F9194",
"&	c #6C6F71",
"*	c #E5E6E8",
"=	c #EFF0F1",
"-	c #6B6E71",
";	c #EEEFF0",
">	c #E4E6E7",
",	c #3B3E42",
"'	c #CBCCCE",
")	c #E6E7E8",
"!	c #565B5E",
"~	c #585B5F",
"{	c #595C60",
"]	c #8E9093",
"^	c #E3E5E6",
"/	c #3A3D41",
"(	c #696C6F",
"_	c #C8CACC",
"                  ",
"                  ",
"     .+@##$%.     ",
"    &*======*-    ",
"   &;========;-   ",
"  .*==========>,  ",
"  +============%  ",
"  '============$  ",
"  )=====!~=====*  ",
"  *=====~{=====>  ",
"  @============$  ",
"  %============]  ",
"  .*==========^/  ",
"   -;========;(   ",
"    ->======^(    ",
"     ,%_))_]/     ",
"                  ",
"                  "};
