/* XPM */
static char * stick_toggled_pressed_xpm[] = {
"18 18 49 1",
" 	c #2A2E32",
".	c #3D4449",
"+	c #545E68",
"@	c #65717D",
"#	c #6D7A86",
"$	c #65707C",
"%	c #555D67",
"&	c #3D434A",
"*	c #353A40",
"=	c #5F6A74",
"-	c #707D8A",
";	c #5E6974",
">	c #34393F",
",	c #3B4148",
"'	c #6C7884",
")	c #3B4147",
"!	c #626D78",
"~	c #6B7784",
"{	c #343A3E",
"]	c #6B7985",
"^	c #464D56",
"/	c #2D3035",
"(	c #474E56",
"_	c #6C7985",
":	c #373C41",
"<	c #363D42",
"[	c #3C4349",
"}	c #555E67",
"|	c #484F56",
"1	c #545D67",
"2	c #2B2F33",
"3	c #434A52",
"4	c #2A2E33",
"5	c #2C3135",
"6	c #6E7A87",
"7	c #6D7986",
"8	c #626D77",
"9	c #434B51",
"0	c #626E79",
"a	c #434A51",
"b	c #474F57",
"c	c #545E66",
"d	c #373D42",
"e	c #6C7986",
"f	c #3C4249",
"g	c #5E6973",
"h	c #33383E",
"i	c #6A7783",
"j	c #626D79",
"     .+@##$%&     ",
"   *=--------;>   ",
"  ,'----------')  ",
" *'----#!!#----~{ ",
" ;---]^/  /(_---= ",
".---]:      <_---[",
"}---^        |---1",
"@--#/  2334  56--$",
"7--8   3--9   !--7",
"7--!   3--9   0--_",
"@--#/  49a4  56--$",
"+---(        b---c",
"&---_<      de---f",
" g---_(/  5be---; ",
" hi----6jj6----~{ ",
"  )~----------~)  ",
"   >=--------;{   ",
"     [1$77$1f     "};
