/* XPM */
static char * title_1_active_xpm[] = {
"5 29 2 1",
" 	c #2A2E32",
".	c #5F6265",
"     ",
"     ",
"     ",
"     ",
"     ",
"     ",
"     ",
"     ",
"     ",
"     ",
"     ",
"     ",
"     ",
"     ",
"     ",
"     ",
"     ",
"     ",
"     ",
"     ",
"     ",
"     ",
"     ",
"     ",
"     ",
"     ",
"     ",
"     ",
"....."};
