/* XPM */
static char * title_5_inactive_xpm[] = {
"5 29 2 1",
" 	c #2A2E32",
".	c #5F6265",
"     ",
"     ",
"     ",
"     ",
"     ",
"     ",
"     ",
"     ",
"     ",
"     ",
"     ",
"     ",
"     ",
"     ",
"     ",
"     ",
"     ",
"     ",
"     ",
"     ",
"     ",
"     ",
"     ",
"     ",
"     ",
"     ",
"     ",
"     ",
"....."};
