/* XPM */
static char * top_right_inactive_xpm[] = {
"8 29 3 1",
" 	c None",
".	c #2A2E32",
"+	c #5F6265",
"......  ",
"....... ",
"........",
"........",
"........",
"........",
"........",
"........",
"........",
"........",
"........",
"........",
"........",
"........",
"........",
"........",
"........",
"........",
"........",
"........",
"........",
"........",
"........",
"........",
"........",
"........",
"........",
"........",
"++++++++"};
