/* XPM */
static char * close_pressed_xpm[] = {
"18 18 39 1",
" 	c #EFF0F1",
".	c #CBB8BB",
"+	c #A07378",
"@	c #814248",
"#	c #722B31",
"$	c #814349",
"%	c #A17478",
"&	c #CCB9BC",
"*	c #DBD1D3",
"=	c #8C545A",
"-	c #6D2229",
";	c #8D555B",
">	c #DCD2D4",
",	c #CFBEC0",
"'	c #763036",
")	c #D0BFC1",
"!	c #763137",
"~	c #DCD3D5",
"{	c #70262D",
"]	c #8A5157",
"^	c #8E555B",
"/	c #8B5258",
"(	c #EAE7E9",
"_	c #966369",
":	c #CDBABD",
"<	c #A07277",
"[	c #935F64",
"}	c #E9E7E8",
"|	c #A17479",
"1	c #966268",
"2	c #732C33",
"3	c #EAE8EA",
"4	c #814449",
"5	c #A27579",
"6	c #CDBBBE",
"7	c #8E565C",
"8	c #DED5D7",
"9	c #773239",
"0	c #732B32",
"     .+@##$%&     ",
"   *=--------;>   ",
"  ,'----------')  ",
" *'------------!~ ",
" =--{]------]{--^ ",
".---/(_----_(/---:",
"<----[}_--[}_----|",
"@-----_(11(_-----$",
"2------_((_------2",
"2------_33_------2",
"@-----_(__(_-----4",
"+----[}_--[}_----5",
"&---](_----_(]---6",
" ;--{]------]{--7 ",
" 89------------!~ ",
"  )!----------!)  ",
"   >^--------7~   ",
"     :|4004|6     "};
