/* XPM */
static char * close_inactive_xpm[] = {
"18 18 35 1",
" 	c #EFF0F1",
".	c #CCD1D5",
"+	c #A2AAB3",
"@	c #848F9A",
"#	c #75828E",
"$	c #838F9A",
"%	c #A3AAB2",
"&	c #CDD1D6",
"*	c #DCDFE2",
"=	c #8F99A3",
"-	c #707D8A",
";	c #8F99A4",
">	c #D0D4D8",
",	c #798591",
"'	c #D1D5D8",
")	c #DDE0E2",
"!	c #73808C",
"~	c #8D98A2",
"{	c #909AA3",
"]	c #EAEBED",
"^	c #98A1AB",
"/	c #CDD2D6",
"(	c #A2A9B2",
"_	c #959FA8",
":	c #E9EBEC",
"<	c #A3ABB3",
"[	c #76838F",
"}	c #EAECED",
"|	c #84909B",
"1	c #A4ACB3",
"2	c #CED2D7",
"3	c #909AA4",
"4	c #DEE1E4",
"5	c #7A8692",
"6	c #76828F",
"     .+@##$%&     ",
"   *=--------;*   ",
"  >,----------,'  ",
" *,------------,) ",
" =--!~------~!--{ ",
".---~]^----^]~---/",
"(----_:^--_:^----<",
"@-----^]^^]^-----$",
"[------^]]^------[",
"[------^}}^------[",
"@-----^]^^]^-----|",
"+----_:^--_:^----1",
"&---~]^----^]~---2",
" ;--!~------~!--3 ",
" 45------------,) ",
"  ',----------,'  ",
"   *{--------3)   ",
"     /<|66|<2     "};
