/* XPM */
static char * window_close_xpm[] = {
"18 18 39 1",
" 	c #EFF0F1",
".	c #E9C1C6",
"+	c #E38791",
"@	c #DE5F6B",
"#	c #DB4B59",
"$	c #DD5F6C",
"%	c #E38891",
"&	c #E9C2C7",
"*	c #EBD6D9",
"=	c #DF6D7A",
"-	c #DA4453",
";	c #DF6E7A",
">	c #ECD7DA",
",	c #EAC7CA",
"'	c #DB4F5D",
")	c #EAC7CB",
"!	c #DC505E",
"~	c #ECD8DB",
"{	c #DB4856",
"]	c #DE6C77",
"^	c #DF6F7A",
"/	c #DF6C78",
"(	c #EEE9EB",
"_	c #E17A85",
":	c #E17A86",
"<	c #EFEAEB",
"[	c #E9C3C8",
"}	c #E28791",
"|	c #E07782",
"1	c #EEE8EA",
"2	c #E38992",
"3	c #DB4D5B",
"4	c #DD606D",
"5	c #E38A92",
"6	c #E9C4C8",
"7	c #DF707B",
"8	c #ECDADD",
"9	c #DC525F",
"0	c #DB4C5A",
"     .+@##$%&     ",
"   *=--------;>   ",
"  ,'----------')  ",
" *'------------!~ ",
" =--{]------]{--^ ",
".---/(_----:</---[",
"}----|1:--|1:----2",
"@-----:(::(_-----$",
"3------:<(_------3",
"3------:<(_------3",
"@-----:(::(_-----4",
"+----|1:--|1:----5",
"&---/(_----:</---6",
" ;--{]------]{--7 ",
" 89------------!~ ",
"  )!----------!)  ",
"   >^--------7~   ",
"     [2400426     "};
