/* XPM */
static char * close_prelight_xpm[] = {
"18 18 33 1",
" 	c #EFF0F1",
".	c #F3D8DC",
"+	c #F9BAC1",
"@	c #FDA6AE",
"#	c #FE9BA5",
"$	c #FCA6AF",
"%	c #F9BBC1",
"&	c #F3D9DC",
"*	c #F1E3E5",
"=	c #FBADB6",
"-	c #FF98A2",
";	c #F1E3E6",
">	c #F3DBDD",
",	c #FE9EA7",
"'	c #F3DBDE",
")	c #FE9EA8",
"!	c #FF9AA4",
"~	c #FBACB4",
"{	c #FBAEB5",
"]	c #FBADB5",
"^	c #F0EDEE",
"/	c #FAB4BC",
"(	c #F3D9DD",
"_	c #FAB2B9",
":	c #F0ECEE",
"<	c #FAB3BB",
"[	c #FE9CA6",
"}	c #FCA7AF",
"|	c #F9BCC2",
"1	c #FBAEB6",
"2	c #F1E5E7",
"3	c #FE9FA8",
"4	c #FE9CA5",
"     .+@##$%&     ",
"   *=--------=;   ",
"  >,----------,'  ",
" *,------------); ",
" =--!~------~!--{ ",
".---]^/----/^]---(",
"+----_:/--_:/----%",
"@-----/^<<^/-----$",
"[------/^^/------[",
"[------/^^/------[",
"@-----/^//^/-----}",
"+----_:/--_:/----|",
"&---~^/----/^~---(",
" =--!~------~!--1 ",
" 23------------); ",
"  ')----------)'  ",
"   ;{--------1;   ",
"     (%}44}%(     "};
