/* XPM */
static char * hide_prelight_xpm[] = {
"18 18 34 1",
" 	c #EFF0F1",
".	c #B7B9BB",
"+	c #737577",
"@	c #434546",
"#	c #2B2E2F",
"$	c #434647",
"%	c #747677",
"&	c #B8BABB",
"*	c #D0D2D3",
"=	c #545759",
"-	c #232627",
";	c #555859",
">	c #D1D3D4",
",	c #BEBFBF",
"'	c #313334",
")	c #BEC0C0",
"!	c #323435",
"~	c #D2D3D5",
"{	c #57595A",
"]	c #B9BBBC",
"^	c #727476",
"/	c #ABADAE",
"(	c #565859",
"_	c #757777",
":	c #535557",
"<	c #DDDEDF",
"[	c #585A5B",
"}	c #2C2F30",
"|	c #2E3132",
"1	c #434748",
"2	c #767878",
"3	c #BABCBD",
"4	c #D5D6D7",
"5	c #333637",
"     .+@##$%&     ",
"   *=--------;>   ",
"  ,'----------')  ",
" *'------------!~ ",
" {--------------= ",
".----------------]",
"^--/(--------(/--_",
"@--:<[------:<[--$",
"}---:<[----:<[---}",
"}----:<[--:<[----|",
"@-----:<[:<[-----1",
"+------(<<(------2",
"&-------((-------3",
" [--------------; ",
" 45------------!~ ",
"  )!----------!)  ",
"   >(--------{~   ",
"     ]_1}}1_3     "};
