/* XPM */
static char * maximize_pressed_xpm[] = {
"18 18 31 1",
" 	c #EFF0F1",
".	c #CFD4D8",
"+	c #A9B0B8",
"@	c #8D97A2",
"#	c #808B97",
"$	c #8D98A2",
"%	c #A9B1B8",
"&	c #D0D4D8",
"*	c #DDE0E3",
"=	c #97A0AA",
"-	c #7B8793",
";	c #98A1AB",
">	c #DEE1E3",
",	c #D3D7DA",
"'	c #838E99",
")	c #838E9A",
"!	c #DEE1E4",
"~	c #99A2AB",
"{	c #98A1AA",
"]	c #D0D4D9",
"^	c #A8B0B8",
"/	c #E5E7E9",
"(	c #AAB1B8",
"_	c #969FA9",
":	c #808C97",
"<	c #818D98",
"[	c #C8CDD2",
"}	c #AAB1B9",
"|	c #D1D5D9",
"1	c #E0E2E5",
"2	c #848F9A",
"     .+@##$%&     ",
"   *=--------;>   ",
"  ,'----------',  ",
" *'------------)! ",
" ~--------------= ",
".-------{{-------]",
"^------{//{------(",
"@-----_/~_/~-----$",
":----_/~--_/~----:",
":---_/~----_/~---<",
"@--_/~------_/~--$",
"+--[{--------{[--}",
"&----------------|",
" ~--------------; ",
" 12------------)! ",
"  ,)----------),  ",
"   >{--------~!   ",
"     ]($::$(|     "};
