/* XPM */
static char * maximize_toggled_inactive_xpm[] = {
"18 18 5 1",
" 	c #EFF0F1",
".	c #CFD3D8",
"+	c #7B8793",
"@	c #D1D5D8",
"#	c #CED2D7",
"                  ",
"                  ",
"                  ",
"        ..        ",
"       .++.       ",
"      @+#@+#      ",
"     @+#  @+#     ",
"    @+#    @+#    ",
"   @+#      @+#   ",
"   @+#      @+#   ",
"    @+#    @+#    ",
"     @+#  @+#     ",
"      @+#@+#      ",
"       .++.       ",
"        ..        ",
"                  ",
"                  ",
"                  "};
