/* XPM */
static char * shade_toggled_inactive_xpm[] = {
"18 18 7 1",
" 	c #EFF0F1",
".	c #707D89",
"+	c #9BA3AB",
"@	c #CFD3D7",
"#	c #D1D5D8",
"$	c #7B8792",
"%	c #CED2D6",
"                  ",
"                  ",
"                  ",
"                  ",
"                  ",
"   ............   ",
"                  ",
"                  ",
"   +@        @+   ",
"   #$%      #$%   ",
"    #$%    #$%    ",
"     #$%  #$%     ",
"      #$%#$%      ",
"       @$$@       ",
"        @@        ",
"                  ",
"                  ",
"                  "};
