/* XPM */
static char * shade_inactive_xpm[] = {
"18 18 7 1",
" 	c #EFF0F1",
".	c #707D8A",
"+	c #CFD3D8",
"@	c #7B8793",
"#	c #D1D5D8",
"$	c #CED2D7",
"%	c #9BA3AC",
"                  ",
"                  ",
"                  ",
"                  ",
"                  ",
"   ............   ",
"                  ",
"        ++        ",
"       +@@+       ",
"      #@$#@$      ",
"     #@$  #@$     ",
"    #@$    #@$    ",
"   #@$      #@$   ",
"   %+        +%   ",
"                  ",
"                  ",
"                  ",
"                  "};
