/* XPM */
static char * shade_pressed_xpm[] = {
"18 18 32 1",
" 	c #EFF0F1",
".	c #CCD1D5",
"+	c #A2AAB3",
"@	c #848F9A",
"#	c #75828E",
"$	c #838F9A",
"%	c #A3AAB2",
"&	c #CDD1D6",
"*	c #DCDFE2",
"=	c #8F99A3",
"-	c #707D8A",
";	c #8F99A4",
">	c #D0D4D8",
",	c #798591",
"'	c #D1D5D8",
")	c #DDE0E2",
"!	c #909AA4",
"~	c #CDD2D6",
"{	c #A2A9B2",
"]	c #A3ABB3",
"^	c #909AA3",
"/	c #76828F",
"(	c #E4E6E8",
"_	c #8E98A3",
":	c #919BA4",
"<	c #77838F",
"[	c #84909B",
"}	c #A4ACB3",
"|	c #CED2D7",
"1	c #C4CACF",
"2	c #DEE1E4",
"3	c #7A8692",
"     .+@##$%&     ",
"   *=--------;*   ",
"  >,----------,'  ",
" *,------------,) ",
" !--------------= ",
".--            --~",
"{----------------]",
"@-------^^-------$",
"/------^((^------/",
"/-----_(:_(:-----<",
"@----_(:--_(:----[",
"+---_(:----_(:---}",
"&--_(:------_(:--|",
" :-1^--------^1-; ",
" 23------------,) ",
"  ',----------,'  ",
"   *^--------!)   ",
"     ~][//[]|     "};
