/* XPM */
static char * stick_toggled_pressed_xpm[] = {
"18 18 52 1",
" 	c #EFF0F1",
".	c #CCD1D5",
"+	c #A2AAB3",
"@	c #848F9A",
"#	c #75828E",
"$	c #838F9A",
"%	c #A3AAB2",
"&	c #CDD1D6",
"*	c #DCDFE2",
"=	c #8F99A3",
"-	c #707D8A",
";	c #8F99A4",
">	c #D0D4D8",
",	c #798591",
"'	c #D1D5D8",
")	c #8A959F",
"!	c #DDE0E2",
"~	c #909AA4",
"{	c #778490",
"]	c #BBC1C8",
"^	c #EBECED",
"/	c #BCC1C7",
"(	c #77838F",
"_	c #D9DCDE",
":	c #D8DCDF",
"<	c #CDD2D6",
"[	c #A2A9B2",
"}	c #BBC0C6",
"|	c #A3ABB3",
"1	c #EEEFF0",
"2	c #C1C6CC",
"3	c #EEEFF1",
"4	c #EAECED",
"5	c #75818E",
"6	c #76828F",
"7	c #8B959F",
"8	c #C2C7CC",
"9	c #8A949E",
"0	c #88939D",
"a	c #C3C7CD",
"b	c #84909B",
"c	c #BABFC6",
"d	c #A4ACB3",
"e	c #D8DBDE",
"f	c #76838F",
"g	c #CED2D7",
"h	c #919BA4",
"i	c #BBC0C7",
"j	c #DEE1E4",
"k	c #7A8692",
"l	c #89939E",
"m	c #909AA3",
"     .+@##$%&     ",
"   *=--------;*   ",
"  >,----------,'  ",
" *,----#))#----,! ",
" ~---{]^  ^/(---= ",
".---{_      :(---<",
"[---]        }---|",
"@--#^  1223  45--$",
"6--7   2--8   9--6",
"6--9   2--8   0--(",
"@--#^  38a3  45--b",
"+---/        c---d",
"&---(:      ef---g",
" h---(i^  4cf---; ",
" jk----5ll5----,! ",
"  ',----------,'  ",
"   *m--------~!   ",
"     <|b66b|g     "};
