/* XPM */
static char * stick_toggled_active_xpm[] = {
"18 18 25 1",
" 	c #EFF0F1",
".	c #DDDEE0",
"+	c #858889",
"@	c #494C4E",
"#	c #2B2E31",
"$	c #4A4D4F",
"%	c #86898A",
"&	c #ABADAF",
"*	c #2D3033",
"=	c #232629",
"-	c #ACAEB0",
";	c #24272A",
">	c #2E3134",
",	c #DEDFE0",
"'	c #87898B",
")	c #494B4D",
"!	c #2C2F32",
"~	c #C1C2C3",
"{	c #BFC1C2",
"]	c #BEC0C1",
"^	c #888A8C",
"/	c #2F3235",
"(	c #DFE0E1",
"_	c #ADAFB0",
":	c #4B4E50",
"                  ",
"                  ",
"     .+@##$%.     ",
"    &*======*-    ",
"   &;========;-   ",
"  .*==========>,  ",
"  +============'  ",
"  )============$  ",
"  !=====~{=====*  ",
"  *====={]=====>  ",
"  @============$  ",
"  %============^  ",
"  .*==========/(  ",
"   -;========;_   ",
"    ->======/_    ",
"     ,':!!:^(     ",
"                  ",
"                  "};
