/* XPM */
static char * stick_pressed_xpm[] = {
"18 18 38 1",
" 	c #EFF0F1",
".	c #CCD1D5",
"+	c #A2AAB3",
"@	c #848F9A",
"#	c #75828E",
"$	c #838F9A",
"%	c #A3AAB2",
"&	c #CDD1D6",
"*	c #DCDFE2",
"=	c #8F99A3",
"-	c #707D8A",
";	c #8F99A4",
">	c #D0D4D8",
",	c #798591",
"'	c #D1D5D8",
")	c #B0B6BE",
"!	c #B3BAC1",
"~	c #DDE0E2",
"{	c #909AA4",
"]	c #CDD2D6",
"^	c #A2A9B2",
"/	c #808B97",
"(	c #A3ABB3",
"_	c #E4E6E8",
":	c #909AA3",
"<	c #76828F",
"[	c #E7E9EB",
"}	c #8E98A3",
"|	c #E9EBEC",
"1	c #AFB7BD",
"2	c #77838F",
"3	c #EAEBED",
"4	c #84909B",
"5	c #A4ACB3",
"6	c #CED2D7",
"7	c #919BA4",
"8	c #DEE1E4",
"9	c #7A8692",
"     .+@##$%&     ",
"   *=--------;*   ",
"  >,----------,'  ",
" *,--------)!--,~ ",
" {--------)  !--= ",
".--------)    !--]",
"^----/--)     )--(",
"@---/_:)     )---$",
"<----:[     )----<",
"<-----}|   1-----2",
"@-----:_3 )------4",
"+----:_::[:------5",
"&---:_:--:_/-----6",
" 7-/_:----/-----; ",
" 89-/----------,~ ",
"  ',----------,'  ",
"   *:--------{~   ",
"     ](4<<4(6     "};
