/* XPM */
static char * stick_inactive_xpm[] = {
"18 18 12 1",
" 	c #EFF0F1",
".	c #AFB7BD",
"+	c #ACB3B9",
"@	c #707D89",
"#	c #DFE2E4",
"$	c #7B8792",
"%	c #CFD3D7",
"&	c #78848F",
"*	c #D1D5D8",
"=	c #76828E",
"-	c #B0B6BD",
";	c #75828D",
"                  ",
"                  ",
"                  ",
"           .+     ",
"          .@@+    ",
"         .@@@@+   ",
"     #  .@@@@@.   ",
"    #$%.@@@@@.    ",
"     %&@@@@@.     ",
"      *=@@@-      ",
"      %$;@.       ",
"     %$%%&%       ",
"    %$%  %$#      ",
"   #$%    #       ",
"    #             ",
"                  ",
"                  ",
"                  "};
