/* XPM */
static char * stick_toggled_prelight_xpm[] = {
"18 18 50 1",
" 	c #EFF0F1",
".	c #B7B9BB",
"+	c #737578",
"@	c #434548",
"#	c #2B2E31",
"$	c #434649",
"%	c #747678",
"&	c #B8BABC",
"*	c #D0D2D3",
"=	c #54575A",
"-	c #232629",
";	c #55585B",
">	c #D1D3D4",
",	c #BEBFC0",
"'	c #313336",
")	c #BEC0C1",
"!	c #323437",
"~	c #D2D3D5",
"{	c #57595C",
"]	c #626467",
"^	c #BDBEBF",
"/	c #E7E8E9",
"(	c #BCBEBF",
"_	c #606366",
":	c #8F9294",
"<	c #8E8F92",
"[	c #B9BBBD",
"}	c #727477",
"|	c #606365",
"1	c #757779",
"2	c #EDEEEF",
"3	c #A6A7A9",
"4	c #EEEFF0",
"5	c #BBBDBE",
"6	c #2C2F32",
"7	c #E6E7E8",
"8	c #A6A8AA",
"9	c #E5E6E7",
"0	c #E4E5E6",
"a	c #2E3134",
"b	c #A7A8AA",
"c	c #BABCBE",
"d	c #434749",
"e	c #5F6264",
"f	c #767879",
"g	c #8C8D90",
"h	c #585A5C",
"i	c #D5D6D7",
"j	c #333639",
"k	c #56585B",
"     .+@##$%&     ",
"   *=--------;>   ",
"  ,'----------')  ",
" *'------------!~ ",
" {----]^//(_----= ",
".----:      <----[",
"}---]        |---1",
"@---^  2334  5---$",
"6---7  3--8  9---6",
"6---7  3--8  0---a",
"@---(  48b4  c---d",
"+---_        e---f",
"&----<      g----c",
" h----|577ce----; ",
" ij------------!~ ",
"  )!----------!)  ",
"   >k--------{~   ",
"     [1d66d1c     "};
