/* XPM */
static char * stick_prelight_xpm[] = {
"18 18 40 1",
" 	c #EFF0F1",
".	c #B7B9BB",
"+	c #737577",
"@	c #434546",
"#	c #2B2E2F",
"$	c #434647",
"%	c #747677",
"&	c #B8BABB",
"*	c #D0D2D3",
"=	c #545759",
"-	c #232627",
";	c #555859",
">	c #D1D3D4",
",	c #BEBFBF",
"'	c #313334",
")	c #BEC0C0",
"!	c #898B8C",
"~	c #8F9293",
"{	c #323435",
"]	c #D2D3D5",
"^	c #57595A",
"/	c #B9BBBC",
"(	c #727476",
"_	c #3D3F40",
":	c #757777",
"<	c #DEDFE0",
"[	c #565859",
"}	c #2C2F30",
"|	c #E2E3E4",
"1	c #535557",
"2	c #E6E7E8",
"3	c #2E3132",
"4	c #DDDEDF",
"5	c #E7E8E9",
"6	c #434748",
"7	c #767878",
"8	c #BABCBD",
"9	c #585A5B",
"0	c #D5D6D7",
"a	c #333637",
"     .+@##$%&     ",
"   *=--------;>   ",
"  ,'----------')  ",
" *'--------!~--{] ",
" ^--------!  ~--= ",
".--------!    ~--/",
"(----_--!     !--:",
"@---_<[!     !---$",
"}----[|     !----}",
"}-----12   !-----3",
"@-----[45 !------6",
"+----[4[[|[------7",
"&---[4[--[<_-----8",
" 9-_<[----_-----; ",
" 0a-_----------{] ",
"  ){----------{)  ",
"   >[--------^]   ",
"     /:6}}6:8     "};
