/* XPM */
static char * stick_active_xpm[] = {
"18 18 12 1",
" 	c #EFF0F1",
".	c #898B8D",
"+	c #838486",
"@	c #232629",
"#	c #D5D7D8",
"$	c #34373A",
"%	c #BCBEBF",
"&	c #303335",
"*	c #BFC1C2",
"=	c #2C2F32",
"-	c #35383A",
";	c #2B2E31",
"                  ",
"                  ",
"                  ",
"           .+     ",
"          .@@+    ",
"         .@@@@+   ",
"     #  .@@@@@.   ",
"    #$%.@@@@@.    ",
"     %&@@@@@.     ",
"      *=@@@.      ",
"      %-;@.       ",
"     %-%%&%       ",
"    %-%  %$#      ",
"   #$%    #       ",
"    #             ",
"                  ",
"                  ",
"                  "};
