/* XPM */
static char * stick_toggled_inactive_xpm[] = {
"18 18 23 1",
" 	c #EFF0F1",
".	c #E4E6E8",
"+	c #ADB5BB",
"@	c #88929D",
"#	c #75828E",
"$	c #88939D",
"%	c #AEB5BC",
"&	c #C4CACF",
"*	c #76838F",
"=	c #707D8A",
"-	c #C5CACF",
";	c #717E8A",
">	c #77838F",
",	c #AEB6BC",
"'	c #87929D",
")	c #76828F",
"!	c #D2D5D9",
"~	c #D1D5D8",
"{	c #AFB6BD",
"]	c #778490",
"^	c #E5E7E9",
"/	c #C6CBCF",
"(	c #89939E",
"                  ",
"                  ",
"     .+@##$%.     ",
"    &*======*-    ",
"   &;========;-   ",
"  .*==========>.  ",
"  +============,  ",
"  '============$  ",
"  )=====!~=====*  ",
"  *=====~~=====>  ",
"  @============$  ",
"  %============{  ",
"  .*==========]^  ",
"   -;========;/   ",
"    ->======]/    ",
"     .,())({^     ",
"                  ",
"                  "};
