/* XPM */
static char * title_1_active_xpm[] = {
"5 29 2 1",
" 	c #EFF0F1",
".	c #BFC3C6",
"     ",
"     ",
"     ",
"     ",
"     ",
"     ",
"     ",
"     ",
"     ",
"     ",
"     ",
"     ",
"     ",
"     ",
"     ",
"     ",
"     ",
"     ",
"     ",
"     ",
"     ",
"     ",
"     ",
"     ",
"     ",
"     ",
"     ",
"     ",
"....."};
